<mxfile host="Electron" modified="2023-09-13T01:55:23.446Z" agent="Mozilla/5.0 (Windows NT 10.0; Win64; x64) AppleWebKit/537.36 (KHTML, like Gecko) draw.io/21.6.8 Chrome/114.0.5735.289 Electron/25.5.0 Safari/537.36" etag="rcnkf4o--6tiGWsw3E1P" version="21.6.8" type="device">
  <diagram name="Page-1" id="DNq6ZwQZ0oqvykgNdicF">
    <mxGraphModel dx="1434" dy="956" grid="1" gridSize="10" guides="1" tooltips="1" connect="1" arrows="1" fold="1" page="1" pageScale="1" pageWidth="850" pageHeight="1100" math="0" shadow="0">
      <root>
        <mxCell id="0" />
        <mxCell id="1" parent="0" />
        <mxCell id="Agrtoc5y424S4yWGLyky-1" style="edgeStyle=orthogonalEdgeStyle;rounded=0;orthogonalLoop=1;jettySize=auto;html=1;entryX=0.5;entryY=0;entryDx=0;entryDy=0;" parent="1" source="Agrtoc5y424S4yWGLyky-2" target="Agrtoc5y424S4yWGLyky-4" edge="1">
          <mxGeometry relative="1" as="geometry" />
        </mxCell>
        <mxCell id="Agrtoc5y424S4yWGLyky-2" value="" style="ellipse;whiteSpace=wrap;html=1;aspect=fixed;" parent="1" vertex="1">
          <mxGeometry x="395" y="90" width="60" height="60" as="geometry" />
        </mxCell>
        <mxCell id="Agrtoc5y424S4yWGLyky-20" style="edgeStyle=orthogonalEdgeStyle;rounded=0;orthogonalLoop=1;jettySize=auto;html=1;entryX=0.5;entryY=0;entryDx=0;entryDy=0;" parent="1" source="Agrtoc5y424S4yWGLyky-4" target="Agrtoc5y424S4yWGLyky-19" edge="1">
          <mxGeometry relative="1" as="geometry" />
        </mxCell>
        <mxCell id="Agrtoc5y424S4yWGLyky-4" value="View Users" style="ellipse;whiteSpace=wrap;html=1;" parent="1" vertex="1">
          <mxGeometry x="365" y="190" width="120" height="80" as="geometry" />
        </mxCell>
        <mxCell id="Agrtoc5y424S4yWGLyky-16" value="&lt;h1&gt;Use Case Description&lt;/h1&gt;&lt;p&gt;&lt;b&gt;Use Case Name&amp;nbsp;&lt;/b&gt;- View Users&lt;/p&gt;&lt;p&gt;&lt;b&gt;Summary&amp;nbsp;&lt;/b&gt;- This use case simply allows Podcast Managers to view all of the users of the system.&lt;/p&gt;&lt;p&gt;&lt;b&gt;Actors&lt;/b&gt; - Podcast Managers&lt;/p&gt;&lt;p&gt;&lt;b&gt;Preconditions&lt;/b&gt; - The Podcast Manager must have logged in as an admin.&lt;/p&gt;&lt;p&gt;&lt;b&gt;Main Sequence&lt;/b&gt; -&amp;nbsp;&lt;/p&gt;&lt;p&gt;1. Podcast Manager is logged into account&lt;/p&gt;&lt;p&gt;2. Podcast Manager may browse and manage users.&lt;/p&gt;&lt;p&gt;&lt;br&gt;&lt;/p&gt;" style="text;html=1;strokeColor=none;fillColor=none;spacing=5;spacingTop=-20;whiteSpace=wrap;overflow=hidden;rounded=0;" parent="1" vertex="1">
          <mxGeometry x="530" y="75" width="300" height="530" as="geometry" />
        </mxCell>
        <mxCell id="Agrtoc5y424S4yWGLyky-19" value="" style="ellipse;whiteSpace=wrap;html=1;aspect=fixed;" parent="1" vertex="1">
          <mxGeometry x="395" y="310" width="60" height="60" as="geometry" />
        </mxCell>
        <mxCell id="HrtVGth4TgD_wtFMhKo0-1" value="BEANSTALK&lt;br&gt;Cal Crosby, Ashton Stroud, Sarah Hardin, Jon Story" style="text;html=1;align=center;verticalAlign=middle;resizable=0;points=[];autosize=1;strokeColor=none;fillColor=none;" vertex="1" parent="1">
          <mxGeometry x="275" y="35" width="300" height="40" as="geometry" />
        </mxCell>
      </root>
    </mxGraphModel>
  </diagram>
</mxfile>
